<svg width="292" height="129" viewBox="0 0 292 129" fill="none" xmlns="http://www.w3.org/2000/svg">
<g filter="url(#filter0_d_3_14)">
<rect x="4" y="17" width="152" height="90" rx="12" fill="#31EB2D"/>
<rect x="6" y="19" width="148" height="86" rx="10" stroke="#31EB2D" stroke-width="4"/>
</g>
<g filter="url(#filter1_d_3_14)">
<path d="M44.4602 50.56C44.4602 51.82 45.0902 52.81 46.3502 53.53C47.6702 54.25 49.7102 55.03 52.4702 55.87C55.7702 56.95 58.4702 58 60.5702 59.02C62.7302 60.04 64.5902 61.63 66.1502 63.79C67.7702 65.95 68.5802 68.77 68.5802 72.25C68.5802 83.41 61.3202 88.99 46.8002 88.99C44.4002 88.99 41.4602 88.78 37.9802 88.36C34.5602 87.94 31.4402 87.4 28.6202 86.74C28.7402 85.48 28.9802 83.65 29.3402 81.25C29.7602 78.79 30.1502 76.96 30.5102 75.76C32.6102 76.06 35.7602 76.42 39.9602 76.84C44.2202 77.26 47.4302 77.47 49.5902 77.47C50.8502 77.47 51.6002 77.38 51.8402 77.2C52.2002 76.96 52.4702 76.57 52.6502 76.03C52.8902 75.43 53.0102 74.92 53.0102 74.5C53.0102 73.3 52.4402 72.4 51.3002 71.8C50.1602 71.14 48.2102 70.36 45.4502 69.46C42.1502 68.44 39.4202 67.39 37.2602 66.31C35.1002 65.23 33.2102 63.55 31.5902 61.27C29.9702 58.99 29.1602 55.99 29.1602 52.27C29.1602 49.63 29.7602 47.05 30.9602 44.53C32.1602 41.95 33.3902 40.21 34.6502 39.31C35.6102 38.65 37.5902 38.02 40.5902 37.42C43.5902 36.82 46.4102 36.52 49.0502 36.52C55.7702 36.52 61.2602 37.15 65.5202 38.41C65.4602 39.61 65.2502 41.26 64.8902 43.36C64.5902 45.46 64.2602 47.38 63.9002 49.12L61.8302 49.03C54.0302 48.49 49.0502 48.22 46.8902 48.22C45.9902 48.22 45.4802 48.25 45.3602 48.31C45.1202 48.43 44.9102 48.7 44.7302 49.12C44.5502 49.54 44.4602 50.02 44.4602 50.56ZM110.039 86.74C105.179 88.36 99.7486 89.17 93.7486 89.17C87.0286 89.17 81.9886 87.49 78.6286 84.13C75.3286 80.71 73.6786 75.4 73.6786 68.2C73.6786 64.66 74.1586 61.18 75.1186 57.76C76.0786 54.28 77.0986 51.94 78.1786 50.74C79.4386 49.36 81.8986 48.19 85.5586 47.23C89.2786 46.27 93.1186 45.79 97.0786 45.79C101.219 45.79 105.389 46.15 109.589 46.87C109.469 48.37 109.259 50.14 108.959 52.18C108.719 54.16 108.449 55.93 108.149 57.49C104.429 57.25 100.919 57.13 97.6186 57.13C94.3786 57.13 92.3086 57.31 91.4086 57.67C90.9286 57.85 90.4786 59.08 90.0586 61.36C89.6986 63.64 89.5186 65.77 89.5186 67.75C89.5186 70.39 89.8786 72.43 90.5986 73.87C91.3786 75.25 92.5786 76.21 94.1986 76.75C95.8186 77.29 98.0086 77.56 100.769 77.56C101.969 77.56 104.609 77.44 108.689 77.2L110.039 86.74ZM123.209 41.47C121.169 41.47 119.399 40.78 117.899 39.4C116.459 38.02 115.739 36.37 115.739 34.45C115.739 32.53 116.459 30.88 117.899 29.5C119.399 28.12 121.169 27.43 123.209 27.43C125.249 27.43 126.989 28.12 128.429 29.5C129.869 30.88 130.589 32.53 130.589 34.45C130.589 36.37 129.869 38.02 128.429 39.4C126.989 40.78 125.249 41.47 123.209 41.47ZM115.469 46.6H130.859V88H115.469V46.6Z" fill="#FFFDFD"/>
</g>
<g filter="url(#filter2_d_3_14)">
<path d="M207.21 88H190.2L187.14 75.04C187.02 74.56 186.81 73.75 186.51 72.61C186.27 71.41 185.97 70.54 185.61 70C185.25 69.4 184.74 69.01 184.08 68.83C182.4 68.89 179.94 68.92 176.7 68.92V88H160.5V37.15C167.76 36.61 174.54 36.34 180.84 36.34C186.54 36.34 191.16 36.82 194.7 37.78C198.24 38.68 200.88 40.27 202.62 42.55C204.42 44.77 205.32 47.83 205.32 51.73C205.32 55.39 204.48 58.27 202.8 60.37C201.12 62.41 198.42 63.64 194.7 64.06V64.6C196.8 64.78 198.54 65.47 199.92 66.67C201.36 67.81 202.32 69.28 202.8 71.08L207.21 88ZM176.7 58.75C177.24 58.81 178.29 58.84 179.85 58.84C184.47 58.84 187.17 58.45 187.95 57.67C188.67 56.95 189.03 55.27 189.03 52.63C189.03 50.17 188.37 48.49 187.05 47.59C185.79 46.69 183.69 46.24 180.75 46.24C180.09 46.24 178.74 46.3 176.7 46.42V58.75ZM237.007 77.2C238.507 77.2 241.297 77.05 245.377 76.75C245.917 76.75 246.907 76.69 248.347 76.57L249.697 85.84C245.077 88 239.077 89.08 231.697 89.08C224.797 89.08 219.487 87.34 215.767 83.86C212.107 80.38 210.277 75.13 210.277 68.11C210.277 64.51 210.727 61.03 211.627 57.67C212.587 54.31 213.667 51.97 214.867 50.65C216.127 49.33 218.467 48.19 221.887 47.23C225.307 46.27 228.697 45.79 232.057 45.79C237.457 45.79 241.507 46.75 244.207 48.67C246.907 50.59 248.677 53.26 249.517 56.68C250.357 60.04 250.777 64.57 250.777 70.27C246.697 70.51 242.707 70.63 238.807 70.63H226.027C226.027 72.55 226.417 73.99 227.197 74.95C228.037 75.91 229.207 76.54 230.707 76.84C232.207 77.08 234.307 77.2 237.007 77.2ZM226.927 56.5C226.567 56.68 226.297 57.46 226.117 58.84C225.937 60.22 225.817 61.78 225.757 63.52H230.437C233.257 63.52 235.297 63.49 236.557 63.43C236.557 60.55 236.137 58.51 235.297 57.31C234.517 56.11 233.137 55.51 231.157 55.51C229.537 55.51 228.127 55.84 226.927 56.5ZM275.814 41.92C275.394 42.34 275.184 43.63 275.184 45.79V46.6H284.724V55.42H275.184V88H259.794V55.42H253.044V47.41L259.794 46.6V45.25C259.794 42.61 260.154 40.09 260.874 37.69C261.594 35.29 262.254 33.85 262.854 33.37C264.714 31.81 268.674 31.03 274.734 31.03C278.034 31.03 281.724 31.27 285.804 31.75C285.804 32.47 285.684 33.91 285.444 36.07C285.264 38.23 285.084 40.06 284.904 41.56L281.034 41.47C277.854 41.47 276.114 41.62 275.814 41.92Z" fill="black"/>
</g>
<defs>
<filter id="filter0_d_3_14" x="0" y="17" width="160" height="98" filterUnits="userSpaceOnUse" color-interpolation-filters="sRGB">
<feFlood flood-opacity="0" result="BackgroundImageFix"/>
<feColorMatrix in="SourceAlpha" type="matrix" values="0 0 0 0 0 0 0 0 0 0 0 0 0 0 0 0 0 0 127 0" result="hardAlpha"/>
<feOffset dy="4"/>
<feGaussianBlur stdDeviation="2"/>
<feComposite in2="hardAlpha" operator="out"/>
<feColorMatrix type="matrix" values="0 0 0 0 0 0 0 0 0 0 0 0 0 0 0 0 0 0 0.25 0"/>
<feBlend mode="normal" in2="BackgroundImageFix" result="effect1_dropShadow_3_14"/>
<feBlend mode="normal" in="SourceGraphic" in2="effect1_dropShadow_3_14" result="shape"/>
</filter>
<filter id="filter1_d_3_14" x="24.6202" y="27.43" width="110.239" height="69.74" filterUnits="userSpaceOnUse" color-interpolation-filters="sRGB">
<feFlood flood-opacity="0" result="BackgroundImageFix"/>
<feColorMatrix in="SourceAlpha" type="matrix" values="0 0 0 0 0 0 0 0 0 0 0 0 0 0 0 0 0 0 127 0" result="hardAlpha"/>
<feOffset dy="4"/>
<feGaussianBlur stdDeviation="2"/>
<feComposite in2="hardAlpha" operator="out"/>
<feColorMatrix type="matrix" values="0 0 0 0 0 0 0 0 0 0 0 0 0 0 0 0 0 0 0.25 0"/>
<feBlend mode="normal" in2="BackgroundImageFix" result="effect1_dropShadow_3_14"/>
<feBlend mode="normal" in="SourceGraphic" in2="effect1_dropShadow_3_14" result="shape"/>
</filter>
<filter id="filter2_d_3_14" x="156.5" y="31.03" width="133.304" height="66.05" filterUnits="userSpaceOnUse" color-interpolation-filters="sRGB">
<feFlood flood-opacity="0" result="BackgroundImageFix"/>
<feColorMatrix in="SourceAlpha" type="matrix" values="0 0 0 0 0 0 0 0 0 0 0 0 0 0 0 0 0 0 127 0" result="hardAlpha"/>
<feOffset dy="4"/>
<feGaussianBlur stdDeviation="2"/>
<feComposite in2="hardAlpha" operator="out"/>
<feColorMatrix type="matrix" values="0 0 0 0 0 0 0 0 0 0 0 0 0 0 0 0 0 0 0.25 0"/>
<feBlend mode="normal" in2="BackgroundImageFix" result="effect1_dropShadow_3_14"/>
<feBlend mode="normal" in="SourceGraphic" in2="effect1_dropShadow_3_14" result="shape"/>
</filter>
</defs>
</svg>
